<?xml version="1.0" encoding="utf-8"?>
<!-- Generator: Adobe Illustrator 26.3.1, SVG Export Plug-In . SVG Version: 6.00 Build 0)  -->
<svg version="1.1" id="Layer_1" xmlns="http://www.w3.org/2000/svg" xmlns:xlink="http://www.w3.org/1999/xlink" x="0px" y="0px"
	 viewBox="0 0 16 16" style="enable-background:new 0 0 16 16;" xml:space="preserve">
<style type="text/css">
	.st0{fill:#010101;}
</style>
<g>
	<circle class="st0" cx="9.41" cy="2.28" r="1.41"/>
	<path class="st0" d="M15.78,12.24l-2.01-1.54l-0.81-0.6c0,0-1.58-1.03-2.57-0.17c-0.3,0.26-0.55,0.51-0.81,0.81L6.63,8.35L8.6,4.5
		L6.59,1.6H2.35L1.8,4.42L0.99,3.73c-0.17-0.13-0.43-0.13-0.6,0.04C0.26,3.94,0.26,4.2,0.43,4.33l1.58,1.28L1.03,6.67l0.09,3.76
		l-0.98,3.67c-0.13,0.43,0.13,0.9,0.55,0.98c0.09,0,0.13,0.04,0.21,0.04c0.34,0,0.69-0.26,0.81-0.6l1.07-3.89l0.17-2.95l2.1,2.48
		l-1.97,3.67c-0.21,0.38-0.09,0.9,0.34,1.11c0.13,0.09,0.26,0.09,0.38,0.09c0.3,0,0.55-0.17,0.73-0.43l2.48-4.53L6.03,8.93
		l3.03,2.43c-0.69,0.94-1.24,1.97-1.5,2.61c-0.17,0.47-0.3,0.77-0.3,0.86v0.04h5.94l2.69-2.57L15.78,12.24z M3.09,4.59l0.3-1.5h0.13
		l0.9,0.13L3.09,4.59z M5.48,7.41L4.62,6.73l1.58-0.69L5.48,7.41z"/>
</g>
</svg>
